HIERARCHY
ROOT Hips
{
	OFFSET -3.958830 18.904000 13.208200
	CHANNELS 6 Xposition Yposition Zposition Zrotation Yrotation Xrotation 
	JOINT LHipJoint
	{
		OFFSET 0.000000 0.000000 0.000000
		CHANNELS 3 Zrotation Yrotation Xrotation
		JOINT LeftUpLeg
		{
			OFFSET 1.800000 -1.400000 0.085000
			CHANNELS 3 Zrotation Yrotation Xrotation
			JOINT LeftLeg
			{
				OFFSET 2.215000 -6.000000 0.000000
				CHANNELS 3 Zrotation Yrotation Xrotation
				JOINT LeftFoot
				{
					OFFSET 2.500000 -6.900000 0.000000
					CHANNELS 3 Zrotation Yrotation Xrotation
					JOINT LeftToeBase
					{
						OFFSET 0.200000 -0.500000 1.950000
						CHANNELS 3 Zrotation Yrotation Xrotation
						End Site
						{
							OFFSET 0.000000 0.000000 0.000000
						}
					}
				}
			}
		}
	}
	JOINT RHipJoint
	{
		OFFSET 0.000000 0.000000 0.000000
		CHANNELS 3 Zrotation Yrotation Xrotation
		JOINT RightUpLeg
		{
			OFFSET -1.800000 -1.400000 0.085000
			CHANNELS 3 Zrotation Yrotation Xrotation
			JOINT RightLeg
			{
				OFFSET -2.215000 -6.000000 0.000000
				CHANNELS 3 Zrotation Yrotation Xrotation
				JOINT RightFoot
				{
					OFFSET -2.500000 -6.900000 0.000000
					CHANNELS 3 Zrotation Yrotation Xrotation
					JOINT RightToeBase
					{
						OFFSET -0.200000 -0.500000 1.950000
						CHANNELS 3 Zrotation Yrotation Xrotation
						End Site
						{
							OFFSET 0.000000 0.000000 0.000000
						}
					}
				}
			}
		}
	}
	JOINT LowerBack
	{
		OFFSET 0.000000 0.000000 0.000000
		CHANNELS 3 Zrotation Yrotation Xrotation
		JOINT Spine
		{
			OFFSET -0.087000 1.940000 -0.288900
			CHANNELS 3 Zrotation Yrotation Xrotation
			JOINT Spine1
			{
				OFFSET 0.000000 1.950000 0.060000
				CHANNELS 3 Zrotation Yrotation Xrotation
				JOINT Neck
				{
					OFFSET 0.000000 0.000000 0.000000
					CHANNELS 3 Zrotation Yrotation Xrotation
					JOINT Neck1
					{
						OFFSET 0.000000 1.600000 0.340000
						CHANNELS 3 Zrotation Yrotation Xrotation
						JOINT Head
						{
							OFFSET 0.000000 1.667000 -0.240000
							CHANNELS 3 Zrotation Yrotation Xrotation
							End Site
							{
								OFFSET 0.000000 0.000000 0.000000
							}
						}
					}
				}
				JOINT LeftShoulder
				{
					OFFSET 0.000000 0.000000 0.000000
					CHANNELS 3 Zrotation Yrotation Xrotation
					JOINT LeftArm
					{
						OFFSET 2.700000 1.550000 -0.730000
						CHANNELS 3 Zrotation Yrotation Xrotation
						JOINT LeftForeArm
						{
							OFFSET 5.450000 0.000000 0.000000
							CHANNELS 3 Zrotation Yrotation Xrotation
							JOINT LeftHand
							{
								OFFSET 3.450000 0.000000 0.000000
								CHANNELS 3 Zrotation Yrotation Xrotation
								JOINT LeftHandIndex1
								{
									OFFSET 0.750000 0.000000 0.000000
									CHANNELS 3 Zrotation Yrotation Xrotation
									End Site
									{
										OFFSET 0.000000 0.000000 0.000000
									}
								}
							}
						}
					}
				}
				JOINT RightShoulder
				{
					OFFSET 0.000000 0.000000 0.000000
					CHANNELS 3 Zrotation Yrotation Xrotation
					JOINT RightArm
					{
						OFFSET -2.700000 1.550000 -0.730000
						CHANNELS 3 Zrotation Yrotation Xrotation
						JOINT RightForeArm
						{
							OFFSET -5.450000 0.000000 0.000000
							CHANNELS 3 Zrotation Yrotation Xrotation
							JOINT RightHand
							{
								OFFSET -3.450000 0.000000 0.000000
								CHANNELS 3 Zrotation Yrotation Xrotation
								JOINT RightHandIndex1
								{
									OFFSET -0.750000 0.000000 0.000000
									CHANNELS 3 Zrotation Yrotation Xrotation
									End Site
									{
										OFFSET 0.000000 0.000000 0.000000
									}
								}
							}
						}
					}
				}
			}
		}
	}
}
MOTION
Frames: 12
Frame Time: 0.016667
1.199030 16.473310 -1.535620 -3.592590 27.454811 -1.555929 -15.425918 13.044657 3.221505 -1.524581 -3.722938 -4.450530 -12.918990 11.345862 31.611588 0.661410 7.354287 2.111194 0.090780 0.077450 -0.112880 18.165867 -9.763576 3.647964 11.616892 5.406275 -31.775967 2.725232 -3.977087 23.332022 0.142216 -2.507344 3.454712 0.154980 0.307840 0.012080 -3.538130 -2.650676 -8.176919 5.683696 -5.519230 20.046159 -6.607886 -2.141866 10.915600 2.358052 2.009848 -8.381701 -1.209066 -7.661090 38.339685 5.253690 -9.399540 0.022580 -21.742219 -10.125596 1.650517 -36.447723 -28.549920 10.567869 132.505230 -71.693714 -123.194665 -3.872283 3.179677 -0.033860 0.157800 -0.185940 0.136700 17.101170 5.795252 7.208534 26.325539 -8.147634 -2.698175 12.903749 5.278014 -0.927088 2.541590 -1.286278 -0.109070 0.193250 0.056200 0.067350 
1.209990 16.461290 -1.528030 -4.053780 27.079025 -1.604657 -15.432023 13.028081 3.212437 -1.300558 -3.825077 -4.761969 -12.995558 11.432055 31.889106 0.666681 7.387402 2.091692 0.102950 0.093480 -0.108250 18.166421 -9.713242 3.714914 12.535123 5.698639 -31.953693 1.643562 -3.677429 23.826141 0.130318 -2.489905 3.458545 0.160370 0.300560 0.013380 -3.508674 -2.667807 -8.208390 5.491709 -5.258305 20.512306 -6.384477 -1.813556 10.895505 2.356289 2.168487 -8.435321 -0.930582 -7.667470 38.373985 5.906870 -9.432680 -0.490970 -22.222794 -10.377582 1.676048 -37.396730 -29.081836 10.995154 130.825809 -71.436018 -121.068313 -3.871960 3.130452 -0.024450 0.147360 -0.174510 0.139460 17.576721 5.996173 7.319269 26.767102 -8.201758 -2.586974 11.221896 4.495461 -0.894673 2.559515 -1.269857 -0.103330 0.194010 0.051310 0.068440 
1.232060 16.449340 -1.510670 -4.616301 26.539028 -2.068771 -15.461858 13.033760 3.245243 -0.721202 -4.212732 -5.121137 -13.621599 11.875855 32.753883 0.703671 7.603259 2.000362 0.101870 0.086850 -0.085940 18.144009 -9.608085 3.780452 13.882969 5.961248 -31.650024 -0.045759 -3.296864 24.845482 0.096892 -2.521094 3.445610 0.146240 0.270800 0.011640 -3.395249 -2.836428 -8.284429 4.814732 -5.036543 21.273667 -5.797524 -1.484647 11.479520 2.400286 2.366987 -9.144376 -0.883978 -7.306129 39.857662 6.100210 -8.784550 -0.689720 -21.769816 -11.484646 2.304183 -39.356541 -29.800440 11.441455 126.334345 -70.482296 -115.565183 -3.892858 2.931330 0.013420 0.126780 -0.146050 0.121850 17.041686 7.157527 7.909705 28.188535 -8.128931 -2.595658 9.478123 3.477448 -0.792898 2.588592 -1.220333 -0.104660 0.191110 0.053240 0.048730 
1.268830 16.456390 -1.478330 -5.335054 24.942604 -2.694941 -15.467997 13.007777 3.257332 -0.186330 -4.233774 -4.737170 -14.493900 12.286809 32.648907 0.728438 7.713589 1.942486 0.126110 0.112470 -0.032810 18.142998 -9.572502 3.823229 14.855973 6.100537 -30.768972 -0.655754 -3.155889 25.209299 0.049206 -2.533221 3.434971 0.145840 0.216930 0.009830 -3.339147 -2.816407 -8.335832 4.717597 -4.516973 21.860953 -5.530359 -0.793842 11.979142 2.698404 2.768228 -9.560770 -0.467993 -7.595916 41.614326 6.007190 -8.442560 -1.757170 -21.372750 -11.801052 2.567863 -41.608016 -30.166011 11.824071 122.952046 -70.558941 -112.112002 -3.891433 2.738565 0.059870 0.091180 -0.094080 0.101550 16.068185 7.505534 8.255138 29.706463 -8.362863 -2.871561 8.079254 3.826026 -0.630009 2.596625 -1.175182 -0.094370 0.194090 0.039170 0.026390 
1.293340 16.467450 -1.443040 -6.145703 23.497243 -2.710706 -15.487580 13.013621 3.252159 0.636273 -4.240679 -4.829435 -15.272199 12.647707 32.405149 0.751166 7.798414 1.903592 0.113890 0.094250 -0.030210 18.129736 -9.492974 3.873963 15.741588 6.276131 -29.832562 -0.575608 -3.059962 24.548710 0.048197 -2.465263 3.464646 0.126250 0.200160 0.007050 -3.243910 -2.919099 -8.373056 4.472444 -4.033343 21.655088 -4.630990 -0.308578 12.394596 2.670779 2.679367 -10.117145 -0.878991 -7.422409 42.799580 6.064910 -8.359120 -1.410080 -20.424399 -12.020985 3.074382 -44.282979 -29.924380 12.032393 121.443185 -71.005279 -111.498771 -3.899567 2.655258 0.078450 0.077920 -0.081560 0.089570 15.194792 8.133725 8.652947 30.795661 -8.696266 -3.154501 7.337765 4.390789 -0.520735 2.600099 -1.154295 -0.093720 0.186310 0.044180 0.018450 
1.309430 16.493440 -1.422120 -6.641130 22.206129 -3.067184 -15.519433 13.076453 3.255282 0.840281 -4.058166 -4.525720 -15.368429 12.696112 32.085578 0.762746 7.760080 1.908014 0.123260 0.103090 -0.017610 18.092877 -9.464107 3.887417 16.109221 6.227339 -28.781637 -0.331500 -3.065429 24.132441 0.025339 -2.422358 3.481949 0.115520 0.173910 -0.004010 -3.113370 -3.049255 -8.395726 3.483145 -3.619403 22.078978 -3.606803 0.024550 12.864291 2.552930 2.432890 -10.680896 -1.655552 -7.061360 44.887474 6.966990 -8.580020 -1.575640 -19.700526 -12.337337 3.598927 -46.182634 -28.787552 11.091935 121.349746 -71.510109 -112.770430 -3.874904 2.642941 0.112680 0.041970 -0.050530 0.088890 14.812487 9.078686 9.046975 30.699620 -8.535783 -3.237038 7.568603 4.669576 -0.459009 2.611574 -1.124344 -0.087550 0.190660 0.033900 0.016780 
1.337040 16.504090 -1.408360 -7.397370 20.887930 -3.055667 -15.516081 13.114942 3.203339 0.721819 -3.755993 -4.304140 -14.822624 12.325111 31.283910 0.726718 7.563125 1.975748 0.117970 0.094990 -0.037020 18.104147 -9.403754 3.956324 16.904192 6.443632 -28.512985 -0.545967 -2.981923 24.402189 0.019427 -2.453034 3.471644 0.111360 0.184870 -0.008530 -3.108972 -3.165466 -8.397972 3.708025 -3.653399 21.863200 -3.090898 0.036403 13.396917 2.200071 1.749207 -10.958675 -3.143350 -6.300216 45.343912 7.818600 -8.816770 -1.186790 -18.982934 -12.518838 3.926321 -47.705860 -29.307722 11.760601 121.432317 -71.130470 -112.886065 -3.865697 2.658945 0.111410 0.036450 -0.058970 0.096290 14.784781 9.725666 9.244626 30.434944 -8.199410 -3.086847 6.138536 4.899715 -0.355563 2.619982 -1.128048 -0.089560 0.189710 0.037770 0.025770 
1.358290 16.505910 -1.393210 -7.556040 19.760128 -2.799351 -15.531573 13.154376 3.197715 0.352420 -3.540848 -4.096364 -14.649633 12.139038 30.699876 0.692060 7.448177 2.007967 0.127770 0.103450 -0.026160 18.093705 -9.353954 3.970201 16.927447 6.552827 -28.571362 -0.064036 -3.177546 25.049966 -0.003649 -2.527178 3.439776 0.117810 0.173800 -0.012030 -3.047760 -3.309021 -8.389554 3.256733 -3.697616 21.714672 -2.884677 -0.074027 13.733742 2.093555 1.200434 -11.104226 -4.311076 -5.585978 45.565737 7.957530 -8.503510 -1.811580 -18.209127 -12.387680 4.101487 -49.016533 -29.494950 12.067252 119.496854 -70.705506 -110.474245 -3.878119 2.519161 0.130560 0.023910 -0.048800 0.092210 14.238306 10.039475 9.261667 30.755254 -7.612630 -3.187335 5.254828 5.956539 -0.267741 2.605516 -1.118798 -0.093960 0.196350 0.038080 0.017720 
1.387880 16.504190 -1.384440 -7.989068 19.168692 -2.497052 -15.523783 13.147832 3.160437 0.339083 -3.252532 -3.781234 -14.706257 11.844216 29.276930 0.642969 7.237739 2.072984 0.139800 0.121870 -0.011960 18.110412 -9.319351 4.012048 17.254076 6.762940 -29.001639 -0.182360 -3.177389 25.580437 -0.018826 -2.571502 3.415341 0.128660 0.166760 -0.003910 -3.069973 -3.320543 -8.377532 3.455461 -4.014936 21.322467 -3.159477 -0.437622 13.852566 2.195873 1.500183 -11.001670 -3.636636 -5.125806 45.675822 7.823250 -7.555400 -2.062320 -17.862127 -12.324984 4.180021 -48.985639 -29.861528 12.480413 117.363630 -70.555775 -107.591827 -3.901914 2.362491 0.130470 0.028090 -0.040640 0.088660 13.692831 9.588316 8.872942 31.413233 -6.579680 -3.214024 4.207314 6.964440 -0.215850 2.594000 -1.128128 -0.089070 0.190620 0.033920 0.012100 
1.427070 16.495860 -1.377110 -8.297320 18.003002 -2.361045 -15.516828 13.146428 3.143185 0.032355 -2.861235 -3.073736 -14.915350 11.580033 27.610331 0.618912 7.035681 2.144442 0.143890 0.130450 -0.018730 18.131092 -9.245178 4.081336 17.822520 7.102171 -29.652017 -0.973305 -3.069066 27.096820 -0.043347 -2.722423 3.360362 0.132660 0.169740 0.001440 -3.087757 -3.398805 -8.397314 3.791573 -4.364477 21.244332 -3.251253 -0.823184 13.794940 2.177050 1.076614 -10.967676 -4.306899 -4.057881 45.499016 7.818260 -6.786810 -1.816750 -18.297415 -12.465299 4.204385 -48.321975 -29.757798 12.148925 112.698129 -70.357324 -101.132528 -3.926029 1.922966 0.119140 0.034910 -0.046070 0.092950 14.153860 9.903204 8.845874 30.269077 -5.943217 -2.969056 3.800595 7.524347 -0.197177 2.587526 -1.147160 -0.082400 0.178660 0.032070 0.015410 
1.471110 16.480610 -1.360010 -8.749400 17.394249 -2.313658 -15.508826 13.149708 3.110845 0.088252 -2.464732 -2.191641 -15.042815 11.278789 25.771890 0.583478 6.841474 2.220670 0.144490 0.127240 -0.014450 18.151071 -9.180655 4.148852 18.321141 7.431831 -30.298076 -1.681369 -3.012693 28.728716 -0.077962 -2.904398 3.289230 0.133820 0.171720 0.006130 -3.116389 -3.456767 -8.411645 4.319729 -4.890868 20.936273 -3.329733 -1.391700 13.617874 2.323484 0.790924 -10.842323 -4.695455 -3.433702 45.350389 7.260660 -6.200730 -1.596070 -19.086155 -12.400106 4.232118 -48.449137 -29.159021 11.667701 109.039698 -70.876844 -96.458154 -3.925035 1.460972 0.116380 0.040370 -0.048740 0.094790 14.681364 9.916586 8.677377 29.132567 -5.267063 -2.740734 3.584347 7.812512 -0.186193 2.585911 -1.157131 -0.084890 0.174990 0.030910 0.012430 
1.514870 16.458670 -1.357710 -8.834696 16.973835 -2.323909 -15.503855 13.127986 3.140009 0.022690 -2.404591 -1.731257 -15.762750 11.372641 24.998609 0.600354 6.860809 2.228342 0.133870 0.116210 -0.019350 18.161924 -9.144226 4.162271 18.286220 7.575429 -30.933878 -1.967637 -3.120206 30.265777 -0.105031 -3.102272 3.224129 0.130340 0.185270 0.003960 -3.130747 -3.483929 -8.444609 4.559305 -5.378933 21.012099 -3.546420 -1.934490 13.229406 2.515008 0.792054 -10.693709 -4.453641 -2.939965 45.208581 6.874000 -5.567710 -1.141690 -20.374420 -12.673493 4.200472 -47.490045 -28.433360 10.227253 105.327131 -70.810058 -90.351491 -3.856910 0.969289 0.106940 0.054380 -0.059800 0.096350 15.616871 10.076200 8.587950 27.834008 -4.712093 -2.543731 3.124460 8.486485 -0.168441 2.574473 -1.166689 -0.092410 0.179030 0.033480 0.011610 
